HIERARCHY
ROOT Bip001_Pelvis
{
  OFFSET 34.4345 95.6767 -26.8758
  CHANNELS 6 Xposition Yposition Zposition Zrotation Xrotation Yrotation
  JOINT Bip001_Spine
  {
    OFFSET 1.4188e-005 10.2191 -0.0116013
    CHANNELS 3 Zrotation Xrotation Yrotation
    JOINT Bip001_L_Thigh
    {
      OFFSET 11.0458 -10.2192 0.0116197
      CHANNELS 3 Zrotation Xrotation Yrotation
      JOINT Bip001_L_Calf
      {
        OFFSET -0.707118 -44.0221 0.360014
        CHANNELS 3 Zrotation Xrotation Yrotation
        JOINT Bip001_L_Foot
        {
          OFFSET -0.651902 -40.5938 -3.56146
          CHANNELS 3 Zrotation Xrotation Yrotation
          JOINT Bip001_L_Toe0
          {
            OFFSET 0.0530839 -10.2181 13.1504
            CHANNELS 3 Zrotation Xrotation Yrotation
            End Site
            {
              OFFSET -1.02532e-005 0 7.55606
            }
          }
        }
      }
    }
    JOINT Bip001_R_Thigh
    {
      OFFSET -11.0458 -10.2191 0.0115893
      CHANNELS 3 Zrotation Xrotation Yrotation
      JOINT Bip001_R_Calf
      {
        OFFSET 0.706994 -44.0221 0.35984
        CHANNELS 3 Zrotation Xrotation Yrotation
        JOINT Bip001_R_Foot
        {
          OFFSET 0.651786 -40.5938 -3.5613
          CHANNELS 3 Zrotation Xrotation Yrotation
          JOINT Bip001_R_Toe0
          {
            OFFSET -0.0531479 -10.2181 13.1504
            CHANNELS 3 Zrotation Xrotation Yrotation
            End Site
            {
              OFFSET -1.02894e-005 0 7.55606
            }
          }
        }
      }
    }
    JOINT Bip001_Spine1
    {
      OFFSET 1.87041e-005 14.5736 1.08638
      CHANNELS 3 Zrotation Xrotation Yrotation
      JOINT Bip001_Spine2
      {
        OFFSET 2.24614e-005 14.5058 -1.69078
        CHANNELS 3 Zrotation Xrotation Yrotation
        JOINT Bip001_Neck
        {
          OFFSET 2.20278e-005 15.3945 -0.489414
          CHANNELS 3 Zrotation Xrotation Yrotation
          JOINT Bip001_L_Clavicle
          {
            OFFSET 6.06036 -0.000579998 0.00836775
            CHANNELS 3 Zrotation Xrotation Yrotation
            JOINT Bip001_L_UpperArm
            {
              OFFSET 11.5509 -0.0600302 0.00193952
              CHANNELS 3 Zrotation Xrotation Yrotation
              JOINT Bip001_L_Forearm
              {
                OFFSET 25.9523 0.0806089 -2.15551
                CHANNELS 3 Zrotation Xrotation Yrotation
                JOINT Bip001_L_Hand
                {
                  OFFSET 32.2475 0.153767 1.63968
                  CHANNELS 3 Zrotation Xrotation Yrotation
                  JOINT Bip001_L_Finger0
                  {
                    OFFSET 6.04639 -2.20976 5.90322
                    CHANNELS 3 Zrotation Xrotation Yrotation
                    End Site
                    {
                      OFFSET 4.22375 -1.43895 0.606485
                    }
                  }
                  JOINT Bip001_L_Finger1
                  {
                    OFFSET 11.0826 -0.704819 -0.198153
                    CHANNELS 3 Zrotation Xrotation Yrotation
                    End Site
                    {
                      OFFSET 6.20027 -0.397518 -0.0787166
                    }
                  }
                }
              }
            }
          }
          JOINT Bip001_R_Clavicle
          {
            OFFSET -6.06037 -0.000563197 0.00835105
            CHANNELS 3 Zrotation Xrotation Yrotation
            JOINT Bip001_R_UpperArm
            {
              OFFSET -11.5509 -0.0599978 0.00190698
              CHANNELS 3 Zrotation Xrotation Yrotation
              JOINT Bip001_R_Forearm
              {
                OFFSET -25.9523 0.0806822 -2.15589
                CHANNELS 3 Zrotation Xrotation Yrotation
                JOINT Bip001_R_Hand
                {
                  OFFSET -32.2475 0.153859 1.63989
                  CHANNELS 3 Zrotation Xrotation Yrotation
                  JOINT Bip001_R_Finger0
                  {
                    OFFSET -6.04641 -2.20976 5.90317
                    CHANNELS 3 Zrotation Xrotation Yrotation
                    End Site
                    {
                      OFFSET -4.22376 -1.43895 0.60647
                    }
                  }
                  JOINT Bip001_R_Finger1
                  {
                    OFFSET -11.0826 -0.704794 -0.198182
                    CHANNELS 3 Zrotation Xrotation Yrotation
                    End Site
                    {
                      OFFSET -6.20028 -0.397504 -0.0787333
                    }
                  }
                }
              }
            }
          }
          JOINT Bip001_Head
          {
            OFFSET 1.09673e-005 11.2744 2.05948
            CHANNELS 3 Zrotation Xrotation Yrotation
            End Site
            {
              OFFSET 2.89576e-005 20.8808 -2.77728e-005
            }
          }
        }
      }
    }
  }
}
MOTION
Frames:	16
Frame Time:	0.04
37.3756 94.4556 -31.4959 -4.31846 -9.15969 -8.12287 -0.0227715 2.81929 0.154605 8.7797 0.987023 13.2066 -2.76172 21.3115 2.88541 7.52563 -10.5108 0.37193 1.58472 -7.24832 -0.2433 -4.27293 0.248882 -1.32263 -1.04407 14.6295 2.48007 -5.83571 -7.67325 3.65991 3.71524 -12.1796 4.21099 -0.0537973 5.6386 0.310884 -0.0532282 5.63857 0.310896 4.10084 -8.63915 1.4982 -25.1037 12.2369 -7.98425 -37.2033 45.6505 -4.41697 15.8676 1.81005 -26.9882 3.98714 1.74976 -3.29209 6.36111e-015 4.77083e-015 -0 -3.18055e-015 4.77083e-015 -0 11.6726 13.4476 16.9361 60.7971 -35.3826 39.232 -45.2889 6.08022 79.6431 -42.2222 -14.4133 16.0215 -1.59028e-015 0 1.19271e-015 -1.59028e-015 0 7.95139e-016 -4.37067 -1.53423 3.27202 
36.7593 95.0191 -31.9384 -4.65689 -7.58535 -6.58728 -0.100486 2.61222 0.723274 9.56767 0.112057 11.7058 -2.38835 18.7118 1.98541 6.97134 -8.91963 0.249757 1.72415 -7.44814 -0.0894414 -2.96828 1.46531 -2.07746 -0.851921 9.55908 1.65869 -5.20287 -5.35653 3.08442 3.44661 -11.4674 3.99682 -0.227331 5.2229 1.4536 -0.234393 5.22294 1.45343 4.23518 -10.4718 -1.41097 -25.7098 13.1191 -6.36437 -36.1103 44.7577 -5.02975 15.4637 1.23882 -27.0796 4.07882 1.68765 -3.33499 -6.36111e-015 0 2.38542e-015 -6.36111e-015 -1.59028e-015 3.18055e-015 8.54015 15.8099 22.2735 52.7477 -27.045 43.1993 -43.4552 2.55361 68.7427 -38.7602 -14.4065 16.1192 -1.59028e-015 -3.18055e-015 -7.95139e-016 -1.59028e-015 -3.18056e-015 1.59028e-015 -4.40727 -0.164977 0.506482 
36.1053 95.3389 -32.3853 -4.86843 -6.03707 -5.29946 -0.264098 2.43181 1.24217 10.2905 -1.1811 10.8358 -1.899 17.089 0.490362 6.92197 -7.50386 0.158976 1.67889 -8.14703 0.202581 -1.811 1.84971 -2.78191 -0.713185 5.95702 1.15694 -4.85247 -3.72967 2.47327 3.20859 -10.8677 3.88147 -0.581677 4.85723 2.49895 -0.581676 4.85721 2.49895 5.2944 -12.0114 -4.14985 -27.1056 13.5541 -4.6283 -35.4654 43.1664 -5.16557 14.6982 0.816536 -27.6446 4.29421 1.74302 -3.4138 4.41391e-032 -1.59028e-015 1.59028e-015 -6.36111e-015 -1.59028e-015 1.59028e-015 4.56118 17.6016 28.3279 36.4382 -16.9877 44.7303 -39.9772 -0.742011 51.3968 -38.2465 -13.9594 15.4614 -1.59028e-015 3.18055e-015 3.18055e-015 -1.59028e-015 3.18056e-015 1.59028e-015 -5.23175 0.693529 -1.73655 
35.365 95.5407 -32.6356 -4.81735 -5.13089 -4.01708 -0.387989 2.3647 1.70879 11.0505 -1.91316 10.9618 -1.88464 15.8359 -1.54147 6.36946 -6.89045 0.119362 1.54086 -8.09913 0.534772 -0.990142 2.46392 -3.71071 -0.667292 3.1275 0.687074 -4.71146 -2.67338 2.05606 3.09031 -10.5714 3.82668 -0.850391 4.71612 3.44239 -0.848797 4.71725 3.4404 5.61462 -13.8555 -6.65321 -28.6557 14.2339 -2.44286 -34.6747 42.4889 -4.97116 14.1657 0.659334 -28.274 4.414 1.55791 -3.68358 -3.18055e-015 4.77083e-015 -0 -3.18055e-015 6.36111e-015 -0 -0.378184 18.5653 33.2389 37.5674 -17.9942 54.2255 -42.9744 -5.97834 35.2352 -34.1312 -9.37032 16.9446 -1.59028e-015 -6.36111e-015 3.18055e-015 2.64834e-031 -6.36111e-015 2.38542e-015 -5.25522 1.93794 -4.0463 
34.5919 95.7041 -32.7995 -4.974 -4.26006 -2.39475 -0.517252 2.10026 1.54257 11.9278 -2.56813 10.5787 -1.79672 14.9056 -2.55318 5.20216 -6.73235 0.104488 1.37641 -7.93053 0.666692 0.000278058 2.33088 -3.93854 -0.631785 2.46547 0.503344 -4.83611 -2.61138 1.08183 3.04819 -10.3561 3.64332 -1.09203 4.18574 3.1072 -1.09203 4.18572 3.10719 7.52296 -12.2296 -7.95638 -30.3143 11.5202 -0.894074 -35.9819 42.8457 -2.90787 14.5975 0.898098 -28.4573 4.64912 1.65032 -3.88743 -9.54166e-015 -3.18055e-015 1.59028e-015 -9.54166e-015 0 -0 -0.251742 17.5651 34.2221 56.679 -30.9405 64.9481 -51.9706 9.60263 50.2966 -28.1175 -11.0529 9.06879 -1.59028e-015 3.18055e-015 -3.18055e-015 -1.59028e-015 3.18056e-015 -1.59028e-015 -5.78666 0.616326 -4.81409 
34.2337 95.7611 -32.8063 -4.236 -3.79628 -1.33616 -0.783036 1.81801 1.07834 11.4726 -2.39872 11.6638 -1.15031 13.6021 -4.18921 4.74282 -5.85675 0.0555053 1.36871 -7.95713 0.605447 -0.341525 2.3679 -3.78095 -0.307258 2.34511 0.201365 -4.89581 -2.83144 0.769921 2.92804 -10.0111 3.53009 -1.57968 3.62058 2.18778 -1.58593 3.62065 2.1844 10.7047 -9.85661 -8.88612 -30.7773 8.39239 -0.955731 -41.8509 40.8044 1.06668 15.0674 2.62418 -27.866 4.52137 1.5376 -3.6073 -6.36111e-015 6.36111e-015 -3.18055e-015 -6.36111e-015 3.18056e-015 -1.59028e-015 1.66914 15.9181 30.1143 37.5551 -30.0938 56.8838 -44.7404 3.26259 48.1871 -30.1115 -9.82516 5.76183 -1.59028e-015 0 -7.95139e-016 -3.18055e-015 0 -1.59028e-015 -7.93527 -0.0210005 -4.47385 
34.0302 95.7732 -32.6392 -3.55024 -4.32605 -1.82119 -0.613768 1.76773 0.626018 10.4771 -0.932105 13.4658 -0.596819 12.3939 -5.06477 3.8882 -5.68119 0.0513905 1.30335 -7.87252 0.685261 -1.21932 2.54634 -3.63432 -0.258626 3.28378 0.40813 -4.84416 -3.55701 1.27629 2.80737 -9.69148 3.46079 -1.29336 3.52645 1.26905 -1.27516 3.52647 1.27254 10.8958 -8.64626 -8.15554 -30.5718 7.65958 -2.13961 -46.5806 41.0661 5.09112 14.8191 2.9627 -26.444 4.24307 1.74686 -3.91664 -3.18055e-015 0 -0 -6.36111e-015 0 -0 -3.29392 11.8173 26.1154 32.9176 -25.8572 55.8132 -42.9492 -0.185037 44.3886 -30.9731 -11.0106 8.44188 1.59028e-015 0 -1.19271e-015 0 0 -7.95139e-016 -9.43962 0.3295 -3.28573 
33.6037 95.7084 -32.6431 -3.71919 -4.53309 -4.06733 -0.216786 1.82625 0.237754 10.4196 -0.0857519 15.3382 -0.746743 12.3931 -4.67819 4.95893 -5.00066 0.0119032 1.61375 -8.55256 0.533551 -1.29634 1.56562 -1.08984 -0.403687 4.97229 0.660452 -4.97973 -4.20563 1.18141 2.72495 -9.37525 3.26888 -0.437042 3.65282 0.476177 -0.4422 3.65256 0.479283 7.44305 -9.84761 -5.84022 -29.3414 9.74393 -0.928627 -47.821 44.4445 6.02964 15.4067 2.94456 -24.0773 0.749115 1.8109 -3.922 -6.36111e-015 -6.36111e-015 3.18055e-015 -6.36111e-015 -3.18056e-015 3.97569e-015 -3.80188 12.2819 23.7976 31.7845 -25.1498 55.1688 -39.7158 -5.11699 43.9843 -26.4694 -11.9251 12.4044 3.18055e-015 0 7.95139e-016 0 3.18056e-015 -0 -7.42361 2.71318 -2.11282 
33.1202 95.5761 -32.6414 -3.96418 -4.54267 -6.58654 -0.100367 1.95796 0.122987 10.8344 0.215376 15.4237 -1.17396 13.1781 -2.266 4.6498 -5.58798 0.0402316 1.53235 -8.32075 0.646326 -0.998033 0.312194 0.914908 -0.456752 6.77188 1.02756 -5.08418 -5.00537 1.67641 2.73906 -9.16653 2.88174 -0.207537 3.91574 0.255977 -0.205545 3.91574 0.253011 6.98431 -9.98031 -4.30013 -28.8008 10.5258 -1.80004 -48.7743 47.0335 6.35436 15.6575 3.49445 -21.9077 -0.623291 2.06374 -2.73993 9.54166e-015 0 -0 6.36111e-015 0 7.95139e-016 -1.7191 12.8809 22.1505 30.6146 -27.4766 54.5049 -37.382 -7.07833 47.4183 -16.6792 -13.1608 11.5503 -0 0 7.95139e-016 -3.18055e-015 -3.18056e-015 7.95139e-016 -6.43246 2.48875 -1.1005 
32.8563 95.5136 -32.4835 -3.84492 -4.67259 -8.63803 -0.0795429 1.94936 0.231637 10.1845 1.09398 14.8059 -0.728302 12.6832 -0.0555443 4.53845 -5.24747 0.0317707 1.54776 -8.27186 0.668487 -1.22389 -0.461646 -0.0109416 -0.638438 8.32036 1.41356 -4.58764 -6.05888 3.83025 2.67687 -8.97931 2.84722 -0.167115 3.89838 0.466395 -0.167113 3.89837 0.466393 8.68905 -8.79998 -4.24016 -29.7834 9.66405 -3.71708 -50.0154 48.2999 6.92215 15.7839 5.21293 -20.8119 -0.524824 2.57836 -2.0503 -3.18055e-015 0 -3.97569e-016 3.18055e-015 7.95139e-016 -3.97569e-016 -0.884408 11.8847 19.949 31.1604 -28.255 53.3541 -37.5576 -5.21018 52.1596 -11.4605 -13.6106 9.25428 3.18055e-015 -6.36111e-015 1.59028e-015 6.36111e-015 -6.36111e-015 -0 -7.58555 1.49553 -0.358131 
32.6748 95.4891 -32.3596 -3.3653 -4.61022 -10.0814 -0.0504046 1.90759 0.0466502 9.10558 1.84501 15.5422 -0.0140833 11.6321 0.337479 4.91444 -4.12375 -0.0333551 1.5105 -8.58164 0.757912 -1.86589 -1.36312 -0.672203 -0.649248 9.74504 1.62826 -4.06845 -7.04497 5.53454 2.52603 -8.5794 2.77521 -0.100801 3.81513 0.0951243 -0.102138 3.81512 0.095043 9.00607 -7.87018 -3.37626 -30.1103 9.21487 -4.76924 -50.4019 48.265 6.98391 16.4672 6.64812 -20.9259 -0.0852111 2.54208 -2.23918 8.27607e-033 -1.19271e-015 3.97569e-016 3.18055e-015 -3.97569e-016 5.96354e-016 1.59498 11.443 18.1874 34.0935 -29.8435 50.7027 -43.6494 1.23091 60.2269 -7.93803 -15.0595 9.28423 -3.18055e-015 -3.18055e-015 1.59028e-015 2.20695e-032 -1.59028e-015 7.95139e-016 -7.67982 0.998245 0.557195 
32.3706 95.4893 -32.2043 -2.97037 -4.90398 -11.6318 0.00275102 2.05154 -0.337179 8.60689 3.10441 17.4278 -0.20748 10.4348 0.453401 4.26543 -3.79611 -0.0347746 1.39096 -8.24802 0.72356 -2.27104 -1.8939 0.322193 -0.701988 10.7541 1.85282 -3.92397 -7.68019 6.17296 2.44491 -8.33897 2.70178 0.00904687 4.10299 -0.675451 0.0164489 4.10295 -0.675017 6.85303 -7.27905 -1.47028 -28.6123 9.33507 -4.82046 -48.8542 47.7745 5.41796 16.2264 5.5764 -21.6989 1.31337 2.34705 -2.43887 6.36111e-015 1.19271e-015 -5.96354e-016 3.18055e-015 7.95139e-016 -3.97569e-016 6.4043 11.6539 17.8143 36.3654 -32.8639 44.152 -49.9874 4.9908 71.0796 -6.57055 -15.9914 8.16704 3.18055e-015 0 7.95139e-016 2.20695e-032 -1.59028e-015 7.95139e-016 -5.36664 0.0590475 1.38235 
32.1098 95.5086 -32.1814 -2.69244 -4.75575 -13.1631 0.0979807 2.11091 -0.567824 8.0411 3.75006 18.833 -0.0107928 9.42792 1.36737 3.199 -3.71776 -0.0189096 1.41945 -7.50806 0.360797 -2.47783 -2.63955 2.10419 -0.586906 11.3103 1.76658 -3.95034 -7.92731 6.15947 2.39754 -8.19226 2.65067 0.21715 4.22071 -1.1404 0.21715 4.22077 -1.14041 5.21164 -7.41776 0.0332922 -27.502 9.92285 -4.80586 -47.3111 47.4254 3.82752 15.6517 2.66755 -23.0979 2.38061 1.98039 -2.50627 6.36111e-015 7.95139e-016 -3.97569e-016 6.36111e-015 1.59028e-015 -3.97569e-016 11.1493 12.282 16.5669 37.4177 -35.7817 35.4034 -52.7915 6.47754 81.7724 -8.19841 -14.7046 5.98865 6.36111e-015 1.2921e-015 9.93923e-017 3.18055e-015 8.94531e-016 2.98177e-016 -4.08107 -0.155374 2.1496 
31.9359 95.4764 -32.1732 -2.2539 -4.32123 -13.9309 0.137598 2.10475 -0.752628 7.32916 3.57485 19.8753 0.602666 8.94758 1.37385 2.93655 -3.30271 -0.0153595 1.40897 -7.43905 0.292938 -2.76804 -3.72676 2.42961 -0.545967 12.2674 2.16353 -4.03752 -8.41641 6.30094 2.36674 -8.0909 2.61069 0.303124 4.20607 -1.51189 0.303122 4.20596 -1.51187 4.92342 -7.15476 1.07204 -27.1298 10.1014 -5.57822 -45.8219 47.2107 2.01778 14.933 0.281419 -24.2286 3.85892 1.54622 -2.74499 5.51738e-033 -7.95139e-016 3.97569e-016 -0 -7.95139e-016 -0 16.2086 12.4279 14.8504 34.0106 -35.7238 23.7114 -52.855 6.49049 86.8822 -9.94328 -13.6427 8.11059 3.18055e-015 1.59028e-015 -3.97569e-016 -3.18055e-015 9.93924e-016 7.95139e-016 -3.67977 -0.5224 2.99476 
31.6288 95.4093 -32.2183 -1.9919 -3.99445 -14.3039 0.205407 2.13456 -0.980182 7.33585 3.34358 18.9522 0.220657 8.93694 2.97179 2.52335 -3.35242 -0.0150886 1.35127 -7.35958 0.330101 -2.69049 -4.64261 2.64266 -0.77695 13.2274 2.33114 -4.21264 -8.9352 6.52003 2.38186 -8.12412 2.60526 0.447821 4.26528 -1.97006 0.447818 4.26527 -1.97004 4.72749 -7.24059 2.15711 -26.4719 10.5991 -6.39962 -44.3384 46.2113 -0.507055 14.3627 -0.577446 -25.0135 5.32341 1.29907 -3.25885 -6.36111e-015 3.97569e-016 3.97569e-016 -3.18055e-015 3.97569e-016 3.97569e-016 20.3619 12.3408 12.3246 30.5814 -29.3978 11.4896 -49.877 7.32051 86.3477 -15.8734 -12.2405 10.7027 0 1.98785e-015 -0 3.18055e-015 2.38542e-015 -0 -3.23204 -0.325165 3.89626 
31.4838 95.3226 -32.1713 -1.28093 -3.88455 -15.4022 0.164864 2.18216 -1.10094 6.51733 3.64217 20.0715 0.283072 8.23221 3.01148 2.50045 -3.04327 -0.0184184 1.24863 -7.31229 0.511601 -3.13929 -5.94447 3.73369 -0.725639 14.922 2.66095 -4.54786 -9.70074 6.27963 2.41033 -8.21376 2.63787 0.38 4.36066 -2.21147 0.375243 4.36061 -2.21133 4.6847 -7.01854 3.20428 -25.6783 10.7807 -7.44758 -44.0337 44.9403 -1.86092 14.8208 -0.620805 -26.4403 6.171 1.34803 -4.01821 -3.18055e-015 7.95139e-016 1.98785e-015 -9.65542e-033 3.97569e-016 1.39149e-015 22.7401 11.4099 9.4917 32.3497 -20.2145 3.31237 -43.1792 9.03511 82.3011 -21.2097 -6.52736 8.33371 -3.18055e-015 -3.18055e-015 4.77083e-015 -3.18055e-015 -2.38542e-015 3.18055e-015 -2.95435 -0.466871 4.84118 
